<svg width="229" height="45" viewBox="0 0 229 45" fill="none" xmlns="http://www.w3.org/2000/svg">
<path d="M11.28 39V27.56L12.76 31.48L0.44 11H7.32L16.76 26.72H12.8L22.28 11H28.64L16.32 31.48L17.76 27.56V39H11.28ZM38.5513 39.2C36.5246 39.2 34.6979 38.7467 33.0713 37.84C31.4713 36.9067 30.2046 35.64 29.2713 34.04C28.3379 32.4133 27.8713 30.56 27.8713 28.48C27.8713 26.3733 28.3379 24.52 29.2713 22.92C30.2046 21.32 31.4713 20.0667 33.0713 19.16C34.6713 18.2533 36.4979 17.8 38.5513 17.8C40.6313 17.8 42.4713 18.2533 44.0713 19.16C45.6979 20.0667 46.9646 21.32 47.8713 22.92C48.8046 24.52 49.2713 26.3733 49.2713 28.48C49.2713 30.56 48.8046 32.4133 47.8713 34.04C46.9646 35.64 45.6979 36.9067 44.0713 37.84C42.4446 38.7467 40.6046 39.2 38.5513 39.2ZM38.5513 36.68C40.0713 36.68 41.4179 36.3467 42.5913 35.68C43.7646 34.9867 44.6846 34.0267 45.3513 32.8C46.0446 31.5467 46.3913 30.1067 46.3913 28.48C46.3913 26.8267 46.0446 25.3867 45.3513 24.16C44.6846 22.9333 43.7646 21.9867 42.5913 21.32C41.4179 20.6267 40.0846 20.28 38.5913 20.28C37.0979 20.28 35.7646 20.6267 34.5913 21.32C33.4179 21.9867 32.4846 22.9333 31.7913 24.16C31.0979 25.3867 30.7513 26.8267 30.7513 28.48C30.7513 30.1067 31.0979 31.5467 31.7913 32.8C32.4846 34.0267 33.4179 34.9867 34.5913 35.68C35.7646 36.3467 37.0846 36.68 38.5513 36.68ZM61.7494 39.2C59.9627 39.2 58.4027 38.8667 57.0694 38.2C55.736 37.5333 54.696 36.5333 53.9494 35.2C53.2294 33.8667 52.8694 32.2 52.8694 30.2V18H55.7094V29.88C55.7094 32.12 56.256 33.8133 57.3494 34.96C58.4694 36.08 60.0294 36.64 62.0294 36.64C63.496 36.64 64.7627 36.3467 65.8294 35.76C66.9227 35.1467 67.7494 34.2667 68.3094 33.12C68.896 31.9733 69.1894 30.6 69.1894 29V18H72.0294V39H69.3094V33.24L69.7494 34.28C69.0827 35.8267 68.0427 37.04 66.6294 37.92C65.2427 38.7733 63.616 39.2 61.7494 39.2ZM77.9444 39V18H80.6644V23.72L80.3844 22.72C80.971 21.12 81.9577 19.9067 83.3444 19.08C84.731 18.2267 86.451 17.8 88.5044 17.8V20.56C88.3977 20.56 88.291 20.56 88.1844 20.56C88.0777 20.5333 87.971 20.52 87.8644 20.52C85.651 20.52 83.9177 21.2 82.6644 22.56C81.411 23.8933 80.7844 25.8 80.7844 28.28V39H77.9444ZM114.559 11H121.039V39H114.559V11ZM101.839 39H95.3591V11H101.839V39ZM115.039 27.52H101.359V22.04H115.039V27.52ZM134.864 39.2C132.837 39.2 131.01 38.7467 129.384 37.84C127.784 36.9067 126.517 35.64 125.584 34.04C124.65 32.4133 124.184 30.56 124.184 28.48C124.184 26.3733 124.65 24.52 125.584 22.92C126.517 21.32 127.784 20.0667 129.384 19.16C130.984 18.2533 132.81 17.8 134.864 17.8C136.944 17.8 138.784 18.2533 140.384 19.16C142.01 20.0667 143.277 21.32 144.184 22.92C145.117 24.52 145.584 26.3733 145.584 28.48C145.584 30.56 145.117 32.4133 144.184 34.04C143.277 35.64 142.01 36.9067 140.384 37.84C138.757 38.7467 136.917 39.2 134.864 39.2ZM134.864 36.68C136.384 36.68 137.73 36.3467 138.904 35.68C140.077 34.9867 140.997 34.0267 141.664 32.8C142.357 31.5467 142.704 30.1067 142.704 28.48C142.704 26.8267 142.357 25.3867 141.664 24.16C140.997 22.9333 140.077 21.9867 138.904 21.32C137.73 20.6267 136.397 20.28 134.904 20.28C133.41 20.28 132.077 20.6267 130.904 21.32C129.73 21.9867 128.797 22.9333 128.104 24.16C127.41 25.3867 127.064 26.8267 127.064 28.48C127.064 30.1067 127.41 31.5467 128.104 32.8C128.797 34.0267 129.73 34.9867 130.904 35.68C132.077 36.3467 133.397 36.68 134.864 36.68ZM175.622 17.8C177.329 17.8 178.809 18.1333 180.062 18.8C181.342 19.44 182.329 20.4267 183.022 21.76C183.742 23.0933 184.102 24.7733 184.102 26.8V39H181.262V27.08C181.262 24.8667 180.729 23.2 179.662 22.08C178.622 20.9333 177.142 20.36 175.222 20.36C173.782 20.36 172.529 20.6667 171.462 21.28C170.422 21.8667 169.609 22.7333 169.022 23.88C168.462 25 168.182 26.36 168.182 27.96V39H165.342V27.08C165.342 24.8667 164.809 23.2 163.742 22.08C162.675 20.9333 161.182 20.36 159.262 20.36C157.849 20.36 156.609 20.6667 155.542 21.28C154.475 21.8667 153.649 22.7333 153.062 23.88C152.502 25 152.222 26.36 152.222 27.96V39H149.382V18H152.102V23.68L151.662 22.68C152.302 21.16 153.329 19.9733 154.742 19.12C156.182 18.24 157.875 17.8 159.822 17.8C161.875 17.8 163.622 18.32 165.062 19.36C166.502 20.3733 167.435 21.9067 167.862 23.96L166.742 23.52C167.355 21.8133 168.435 20.44 169.982 19.4C171.555 18.3333 173.435 17.8 175.622 17.8ZM198.724 39.2C196.537 39.2 194.617 38.7467 192.964 37.84C191.31 36.9067 190.017 35.64 189.084 34.04C188.15 32.4133 187.684 30.56 187.684 28.48C187.684 26.4 188.124 24.56 189.004 22.96C189.91 21.36 191.137 20.1067 192.684 19.2C194.257 18.2667 196.017 17.8 197.964 17.8C199.937 17.8 201.684 18.2533 203.204 19.16C204.75 20.04 205.964 21.2933 206.844 22.92C207.724 24.52 208.164 26.3733 208.164 28.48C208.164 28.6133 208.15 28.76 208.124 28.92C208.124 29.0533 208.124 29.2 208.124 29.36H189.844V27.24H206.604L205.484 28.08C205.484 26.56 205.15 25.2133 204.484 24.04C203.844 22.84 202.964 21.9067 201.844 21.24C200.724 20.5733 199.43 20.24 197.964 20.24C196.524 20.24 195.23 20.5733 194.084 21.24C192.937 21.9067 192.044 22.84 191.404 24.04C190.764 25.24 190.444 26.6133 190.444 28.16V28.6C190.444 30.2 190.79 31.6133 191.484 32.84C192.204 34.04 193.19 34.9867 194.444 35.68C195.724 36.3467 197.177 36.68 198.804 36.68C200.084 36.68 201.27 36.4533 202.364 36C203.484 35.5467 204.444 34.8533 205.244 33.92L206.844 35.76C205.91 36.88 204.737 37.7333 203.324 38.32C201.937 38.9067 200.404 39.2 198.724 39.2Z" fill="black"/>
<path d="M222.64 28H220.663C220.558 28 220.457 28.0293 220.383 28.0816C220.309 28.1338 220.267 28.2046 220.267 28.2785V28.3113L223.035 29.8708V28.2785C223.035 28.2046 222.993 28.1338 222.919 28.0816C222.845 28.0293 222.744 28 222.64 28Z" fill="black"/>
<path fill-rule="evenodd" clip-rule="evenodd" d="M216.512 31.6203C216.512 31.4356 216.616 31.2585 216.801 31.128C216.987 30.9974 217.238 30.9241 217.5 30.9241C217.762 30.9241 218.014 30.9974 218.199 31.128C218.384 31.2585 218.488 31.4356 218.488 31.6203C218.488 31.8049 218.384 31.982 218.199 32.1126C218.014 32.2431 217.762 32.3165 217.5 32.3165C217.238 32.3165 216.987 32.2431 216.801 32.1126C216.616 31.982 216.512 31.8049 216.512 31.6203V31.6203Z" fill="black"/>
<path fill-rule="evenodd" clip-rule="evenodd" d="M223.419 32.4334L224.037 32.7821C224.16 32.8496 224.316 32.8803 224.471 32.8674C224.626 32.8545 224.767 32.7992 224.865 32.7133C224.962 32.6274 225.008 32.5179 224.991 32.4086C224.975 32.2993 224.898 32.1989 224.777 32.1293L218.353 28.5091C217.827 28.2127 217.173 28.0512 216.5 28.0512C215.827 28.0512 215.173 28.2127 214.647 28.5091L208.223 32.1293C208.1 32.1985 208.021 32.2993 208.004 32.4094C207.986 32.5196 208.032 32.6301 208.13 32.7166C208.228 32.8032 208.371 32.8587 208.528 32.871C208.684 32.8833 208.841 32.8513 208.964 32.7821L209.581 32.4334V38.1646H208.593C208.436 38.1646 208.285 38.2086 208.174 38.2869C208.062 38.3652 208 38.4715 208 38.5823C208 38.6931 208.062 38.7993 208.174 38.8777C208.285 38.956 208.436 39 208.593 39H224.407C224.564 39 224.715 38.956 224.826 38.8777C224.938 38.7993 225 38.6931 225 38.5823C225 38.4715 224.938 38.3652 224.826 38.2869C224.715 38.2086 224.564 38.1646 224.407 38.1646H223.419V32.4334ZM214.326 31.6203C214.326 31.214 214.555 30.8245 214.962 30.5372C215.37 30.25 215.923 30.0886 216.5 30.0886C217.077 30.0886 217.63 30.25 218.038 30.5372C218.445 30.8245 218.674 31.214 218.674 31.6203C218.674 32.0265 218.445 32.4161 218.038 32.7033C217.63 32.9905 217.077 33.1519 216.5 33.1519C215.923 33.1519 215.37 32.9905 214.962 32.7033C214.555 32.4161 214.326 32.0265 214.326 31.6203ZM216.54 33.7089C217.065 33.7089 217.518 33.7089 217.881 33.7434C218.27 33.7802 218.642 33.8631 218.944 34.0759C219.246 34.2887 219.364 34.551 219.416 34.825C219.462 35.0645 219.465 35.3597 219.465 35.7011V38.1646H218.279V35.7975C218.279 35.392 218.277 35.1291 218.241 34.9364C218.206 34.7554 218.151 34.6986 218.105 34.6668C218.06 34.6351 217.979 34.5955 217.722 34.571C217.448 34.5454 217.076 34.5443 216.5 34.5443C215.924 34.5443 215.551 34.5454 215.278 34.571C215.021 34.5955 214.94 34.6351 214.895 34.6668C214.85 34.6986 214.794 34.7554 214.759 34.9364C214.723 35.1297 214.721 35.392 214.721 35.7975V38.1646H213.535V35.7696C213.535 35.3998 213.535 35.0807 213.584 34.825C213.636 34.551 213.754 34.2887 214.056 34.0759C214.358 33.8631 214.731 33.7802 215.119 33.7434C215.482 33.7089 215.935 33.7089 216.461 33.7089H216.539H216.54Z" fill="black"/>
<path fill-rule="evenodd" clip-rule="evenodd" d="M216.512 31.6203C216.512 31.4356 216.616 31.2585 216.801 31.128C216.987 30.9974 217.238 30.9241 217.5 30.9241C217.762 30.9241 218.014 30.9974 218.199 31.128C218.384 31.2585 218.488 31.4356 218.488 31.6203C218.488 31.8049 218.384 31.982 218.199 32.1126C218.014 32.2431 217.762 32.3165 217.5 32.3165C217.238 32.3165 216.987 32.2431 216.801 32.1126C216.616 31.982 216.512 31.8049 216.512 31.6203V31.6203Z" fill="black"/>
</svg>
